<svg width="56" height="56" viewBox="0 0 56 56" fill="none" xmlns="http://www.w3.org/2000/svg">
<path d="M15.5551 53.125H40.4451C45.2971 53.125 47.7111 50.664 47.7111 45.789V24.508H30.7421C27.7421 24.508 26.3361 23.078 26.3361 20.078V2.875H15.5551C10.7271 2.875 8.28906 5.359 8.28906 10.235V45.789C8.28906 50.687 10.7271 53.125 15.5551 53.125ZM30.8131 21.297H47.4531C47.2891 20.336 46.6091 19.398 45.5081 18.25L32.5701 5.102C31.4921 3.977 30.5081 3.297 29.5231 3.132V20.032C29.5231 20.875 29.9691 21.297 30.8131 21.297ZM18.9771 34.657C18.0161 34.657 17.3361 33.977 17.3361 33.063C17.3361 32.148 18.0161 31.469 18.9761 31.469H37.0461C37.9841 31.469 38.7111 32.149 38.7111 33.062C38.7111 33.977 37.9841 34.656 37.0471 34.656L18.9771 34.657ZM18.9771 43.586C18.0161 43.586 17.3361 42.906 17.3361 41.992C17.3361 41.078 18.0161 40.398 18.9761 40.398H37.0461C37.9841 40.398 38.7111 41.078 38.7111 41.992C38.7111 42.906 37.9841 43.586 37.0471 43.586H18.9771Z" fill="white"/>
</svg>
