<svg width="237" height="272" viewBox="0 0 237 272" fill="none" xmlns="http://www.w3.org/2000/svg">
<g opacity="0.9">
<g opacity="0.2">
<path d="M26.5629 242.672C37.497 242.672 46.3607 240.088 46.3607 236.901C46.3607 233.714 37.497 231.131 26.5629 231.131C15.6289 231.131 6.76514 233.714 6.76514 236.901C6.76514 240.088 15.6289 242.672 26.5629 242.672Z" fill="#232323" fill-opacity="0.15"/>
</g>
<g opacity="0.2">
<path d="M127.037 271.078C181.25 271.078 225.198 263.427 225.198 253.99C225.198 244.553 181.25 236.902 127.037 236.902C72.8238 236.902 28.8755 244.553 28.8755 253.99C28.8755 263.427 72.8238 271.078 127.037 271.078Z" fill="#232323" fill-opacity="0.15"/>
</g>
<path d="M48.6379 149.551C48.6379 149.707 48.615 149.863 48.5693 150.015V150.023C48.4043 150.591 47.9361 151.138 47.2143 151.652C43.9083 154.005 35.2032 155.686 24.9896 155.686C14.7761 155.686 6.07485 154.005 2.76886 151.652C1.84772 150.997 1.34424 150.29 1.34424 149.551C1.34424 146.164 11.9307 143.416 24.9896 143.416C38.0486 143.416 48.6389 146.164 48.6389 149.551H48.6379Z" fill="#C69C6D"/>
<g opacity="0.4">
<path d="M7.70643 150.856C8.35962 152.477 10.1714 153.333 11.8716 153.896C14.696 154.831 17.6568 155.379 20.6386 155.519C15.9471 156.935 10.8913 155.657 6.15689 154.378C3.99804 153.795 1.53118 152.942 0.81315 150.886C0.196197 149.119 1.24988 147.118 2.82898 146.05C4.40807 144.983 6.39052 144.66 8.30908 144.491C10.2276 144.321 12.1891 144.27 14.0037 143.645C12.2911 144.25 10.5299 144.885 9.19398 146.085C7.85805 147.287 7.04371 149.212 7.70548 150.856L7.70643 150.856Z" fill="white"/>
</g>
<path d="M24.989 156.987C14.6657 156.987 5.63077 155.305 1.97291 152.7C0.664631 151.771 0 150.711 0 149.55C0 144.441 12.9531 142.114 24.989 142.114C37.0248 142.114 49.9818 144.441 49.9818 149.55C49.9818 149.803 49.9484 150.055 49.8816 150.301C49.8759 150.326 49.8702 150.35 49.8626 150.374C49.6185 151.217 48.9939 152 48.0089 152.701C44.351 155.305 35.3151 156.987 24.989 156.987ZM24.989 144.717C10.5597 144.717 2.68808 147.91 2.68808 149.551C2.68808 149.82 3.01515 150.213 3.56345 150.603C6.69208 152.831 15.503 154.386 24.989 154.386C34.475 154.386 43.2897 152.831 46.4174 150.603C47.0314 150.168 47.2107 149.849 47.2641 149.705C47.2689 149.687 47.2737 149.668 47.2794 149.65C47.2889 149.616 47.2946 149.584 47.2946 149.551C47.2946 147.91 39.422 144.717 24.9899 144.717H24.989Z" fill="#232323"/>
<path d="M48.6307 153.912C48.3084 157.225 37.845 159.887 24.9892 159.887C12.1333 159.887 1.34375 157.139 1.34375 153.752V149.551C1.34375 150.29 1.84723 150.997 2.76837 151.652C6.07436 154.005 14.7756 155.686 24.9892 155.686C35.2027 155.686 43.9078 154.005 47.2138 151.652C47.9356 151.138 48.4038 150.591 48.5688 150.023L48.626 153.555L48.6298 153.912H48.6307Z" fill="#C69C6D"/>
<g opacity="0.3">
<path d="M48.6307 153.912C48.3084 157.225 37.845 159.887 24.9892 159.887C12.1333 159.887 1.34375 157.139 1.34375 153.752V149.551C1.34375 150.29 1.84723 150.997 2.76837 151.652C6.07436 154.005 14.7756 155.686 24.9892 155.686C35.2027 155.686 43.9078 154.005 47.2138 151.652C47.9356 151.138 48.4038 150.591 48.5688 150.023L48.626 153.555L48.6298 153.912H48.6307Z" fill="#232323"/>
</g>
<g opacity="0.3">
<path d="M39.4527 144.696H35.875C35.875 144.696 24.007 146.834 17.252 144.696V146.597C17.252 146.597 18.4334 153.112 35.5803 150.184C35.5803 150.184 35.0435 153.544 23.6027 155.674L43.7752 153.961L47.5551 147.71C47.5551 147.71 43.5778 144.605 39.4527 144.696Z" fill="#232323"/>
</g>
<path d="M24.989 161.189C12.9531 161.189 0 158.862 0 153.752V149.551C0 148.832 0.601693 148.25 1.34356 148.25C2.08543 148.25 2.68713 148.832 2.68713 149.551C2.68713 149.82 3.0142 150.213 3.5625 150.603C6.69112 152.831 15.502 154.386 24.988 154.386C34.474 154.386 43.2887 152.831 46.4164 150.603C47.0839 150.129 47.2384 149.794 47.2736 149.672C47.4539 149.05 48.0785 148.649 48.7402 148.734C49.402 148.817 49.9007 149.357 49.9112 150.003L49.9722 153.9C49.9722 153.945 49.9713 153.991 49.9665 154.035C49.4878 158.951 36.6825 161.189 24.9871 161.189H24.989ZM2.68808 153.159V153.752C2.68808 155.393 10.5597 158.586 24.989 158.586C39.4182 158.586 46.979 155.523 47.286 153.838L47.2765 153.169C43.2382 155.504 34.6819 156.987 24.989 156.987C15.296 156.987 6.71973 155.5 2.68808 153.159Z" fill="#232323"/>
<path d="M17.252 126.518V146.597C21.6679 148.863 29.3774 149.522 35.875 146.597V126.518C29.5815 125.271 23.3748 125.287 17.252 126.518Z" fill="#FBB03B"/>
<g opacity="0.4">
<path d="M26.5635 125.617H24.9873V149.55H26.5635V125.617Z" fill="white"/>
</g>
<g opacity="0.3">
<path d="M32.938 126.03V147.662L35.875 146.598V126.518L32.938 126.03Z" fill="#232323"/>
</g>
<g opacity="0.3">
<path d="M20.1536 126.03V147.662L17.252 146.598V126.518L20.1536 126.03Z" fill="#232323"/>
</g>
<path d="M26.446 149.862C22.5793 149.862 19.0616 148.998 16.6234 147.747C16.1838 147.522 15.9082 147.08 15.9082 146.598V126.518C15.9082 125.901 16.3554 125.369 16.9791 125.244C23.2954 123.974 29.7434 123.974 36.1446 125.244C36.7702 125.368 37.2193 125.9 37.2193 126.519V146.599C37.2193 147.105 36.9161 147.565 36.4421 147.779C33.1505 149.261 29.6766 149.863 26.4469 149.863L26.446 149.862ZM18.5963 145.784C22.5488 147.499 28.9376 147.973 34.5312 145.746V127.593C29.2065 126.663 23.8561 126.662 18.5963 127.59V145.784Z" fill="#232323"/>
<path d="M18.4331 240.288C17.1267 240.288 16.567 239.097 15.643 235.743C15.0413 233.559 14.3023 230.357 13.445 226.228C12.0071 219.305 10.2115 209.657 8.10797 197.552C4.52736 176.955 1.24902 156.089 1.21565 155.882C1.10408 155.171 1.60851 154.508 2.34275 154.4C3.07509 154.292 3.76165 154.78 3.87322 155.491C8.11942 182.551 15.2682 224.731 18.3521 235.578C20.7417 225.004 25.1376 185.258 27.6235 159.766C27.6931 159.05 28.3482 158.527 29.0882 158.592C29.8272 158.659 30.3698 159.295 30.3002 160.01C30.2811 160.208 28.3444 180.022 26.0892 199.582C24.7638 211.077 23.5881 220.241 22.5964 226.816C22.0042 230.74 21.4702 233.783 21.0087 235.862C20.3154 238.983 19.8043 240.287 18.4341 240.287L18.4331 240.288Z" fill="#232323"/>
<path d="M29.2435 236.075C27.9247 236.075 27.3488 234.776 26.5564 231.867C26.0167 229.885 25.3673 226.982 24.6283 223.241C23.3896 216.975 21.8706 208.242 20.1151 197.287C17.1276 178.648 14.449 159.766 14.4223 159.578C14.3213 158.866 14.8362 158.209 15.5714 158.112C16.3085 158.016 16.9845 158.512 17.0856 159.224C20.5156 183.442 26.3752 221.165 29.1672 231.36C31.4653 221.058 35.4922 183.145 37.7445 158.819C37.8112 158.103 38.4625 157.575 39.2034 157.639C39.9424 157.703 40.4879 158.335 40.4221 159.052C40.404 159.242 38.6408 178.239 36.5563 196.993C35.331 208.017 34.2354 216.803 33.3009 223.108C32.7431 226.873 32.2348 229.794 31.7905 231.788C31.1306 234.752 30.6071 236.074 29.2454 236.074L29.2435 236.075Z" fill="#232323"/>
<path d="M76.7969 93.0512C71.6773 132.957 39.2591 147.339 30.7924 179.657C23.1945 208.662 39.9113 241.722 68.4352 254.099C83.3641 260.576 100.206 261.669 116.606 261.607C148.327 261.487 182.553 256.275 204.926 234.82C227.679 212.999 232.688 179.856 234.616 149.132C235.892 128.807 236.325 108.188 231.638 88.3243C228.192 73.7179 221.995 59.7273 213.634 47.0582C199.931 26.2963 179.174 8.54109 153.993 3.56393C128.813 -1.41323 98.9614 0.760475 81.1003 30.3132C70.3327 48.1294 79.4154 72.6384 76.7969 93.0521V93.0512Z" fill="#D8CAF7"/>
<g opacity="0.4">
<path d="M48.1613 163.296C38.6829 176.438 29.0739 179.271 35.3588 166.865C41.6437 154.459 50.7159 143.62 58.7916 132.228C66.8682 120.835 74.141 108.406 76.0415 94.7106C78.1717 79.3553 73.3715 63.6869 75.4922 48.3307C77.2878 35.3263 84.2182 23.0487 94.5539 14.5645C104.889 6.0802 118.53 1.46871 132.073 1.88147C115.252 6.12083 96.8653 11.4193 87.4908 25.5927C78.5197 39.1566 80.5918 56.645 82.3035 72.667C83.8492 87.1386 84.7617 102.188 79.5534 115.834C76.379 124.152 71.0801 131.522 65.8374 138.791C59.9454 146.96 54.0543 155.128 48.1622 163.297L48.1613 163.296Z" fill="white"/>
</g>
<g opacity="0.2">
<path d="M181.642 103.847C178.688 98.4448 175.535 92.8231 170.222 89.3594C163.051 84.6833 153.41 84.9548 144.975 87.074C130.847 90.6236 118.136 98.9425 109.698 110.159C106.876 113.912 104.473 118.02 100.871 121.129C96.0688 125.273 89.6371 127.226 83.9052 130.146C78.1724 133.067 72.6179 137.772 72.2298 143.886C71.9962 147.561 73.6945 151.155 73.5372 154.833C73.3045 160.254 69.1374 164.798 64.691 168.263C60.2446 171.727 55.1907 174.71 51.9638 179.211C48.736 183.711 47.9913 190.444 52.2003 194.161C55.697 197.247 61.0713 197.149 65.8696 197.053C70.6679 196.957 76.1776 197.37 79.065 200.97C81.2667 203.713 81.3811 207.752 84.1455 210.002C86.9757 212.306 91.487 211.658 94.5765 209.67C97.666 207.681 99.7829 204.658 102.225 201.991C104.667 199.324 107.8 196.837 111.537 196.609C120.499 196.062 125.378 208.021 134.316 208.845C138.344 209.216 142.195 207.138 145.198 204.589C148.201 202.041 150.677 198.959 153.856 196.608C158.67 193.05 164.745 191.407 170.7 190.057C176.655 188.707 182.77 187.531 188.1 184.695C193.429 181.858 197.953 176.969 198.366 171.23C199.016 162.193 189.817 155.1 188.061 146.195C186.802 139.813 189.518 133.345 189.582 126.854C189.662 118.709 185.602 111.095 181.64 103.849L181.642 103.847Z" fill="#815BD6"/>
</g>
<path d="M115.276 263.096C100.287 263.096 83.0979 262.091 67.8075 255.456C53.6853 249.328 41.9241 238.074 34.6895 223.768C27.4529 209.456 25.5401 193.661 29.3047 179.292C33.1533 164.6 41.6362 153.817 50.6158 142.4C61.3672 128.732 72.4857 114.597 75.273 92.8674C76.2246 85.4488 75.5829 77.2536 74.9611 69.3271C73.877 55.4861 72.7556 41.1743 79.7747 29.5606C88.1164 15.7593 99.7566 6.67488 114.374 2.56018C125.934 -0.693903 139.366 -0.846264 154.301 2.10494C166.498 4.51596 178.195 9.9382 189.068 18.2212C198.749 25.5964 207.692 35.2912 214.928 46.2548C223.562 59.3358 229.689 73.378 233.136 87.9909C237.896 108.166 237.397 129.342 236.149 149.22C234.242 179.605 229.169 213.662 206.007 235.875C187.072 254.035 157.831 262.938 116.613 263.094C116.169 263.095 115.723 263.096 115.276 263.096V263.096ZM133.845 2.93878C110.981 2.93878 93.7348 12.3529 82.4266 31.063C75.8918 41.8751 76.976 55.717 78.0249 69.1027C78.6571 77.1742 79.3113 85.5208 78.3215 93.235C75.4312 115.762 64.0582 130.221 53.0589 144.203C44.2737 155.372 35.9758 165.92 32.2817 180.024C24.9193 208.126 41.4197 240.747 69.0634 252.742C84.2774 259.343 101.641 260.182 116.6 260.119C156.973 259.967 185.511 251.345 203.845 233.763C226.273 212.254 231.21 178.865 233.083 149.041C234.317 129.384 234.815 108.463 230.141 88.6549C226.773 74.3772 220.784 60.6507 212.34 47.8588C203.484 34.4399 184.086 11.0297 153.687 5.02106C146.665 3.63318 140.048 2.9397 133.845 2.9397V2.93878Z" fill="#C7B5F0"/>
<g opacity="0.2">
<path d="M160.899 5.27405C160.899 5.27405 227.264 49.4544 221.01 81.9694C216.402 105.923 222.708 107.013 222.708 141.147C222.708 175.281 227.468 205.77 198.402 222.131C169.335 238.492 168.714 235.26 136.336 239.351C103.959 243.441 88.4373 256.554 61.8225 238.988C33.9271 220.577 30.4905 183.402 34.6814 168.96C34.6814 168.96 18.6463 200.007 39.082 229.196C59.5178 258.385 100.333 268.048 142.802 260.149C185.27 252.25 209.977 238.492 220.278 213.951C230.58 189.41 238.814 142.834 235.368 118.714C231.923 94.5924 229.14 65.4968 218.484 55.1786C218.484 55.1786 202.38 20.6275 160.899 5.27497V5.27405Z" fill="#835FD2"/>
</g>
<path d="M192.374 120.435C190.343 121.21 188.358 122.085 186.405 123.007C184.456 123.937 182.541 124.922 180.685 125.989C178.837 127.066 177.036 128.201 175.346 129.444C173.671 130.7 172.096 132.049 170.748 133.517L170.731 133.535C170.095 134.228 169 134.29 168.285 133.674C167.57 133.058 167.506 131.998 168.142 131.305C168.19 131.251 168.25 131.196 168.304 131.15C170.078 129.667 171.975 128.444 173.917 127.35C175.868 126.273 177.876 125.349 179.902 124.497C181.934 123.656 183.998 122.913 186.075 122.234C188.156 121.56 190.252 120.945 192.372 120.435H192.374Z" fill="#232323"/>
<path d="M55.8706 181.854C58.2812 181.471 60.7242 181.254 63.1768 181.135C65.6303 181.022 68.0971 181.034 70.5688 181.172C73.0423 181.301 75.513 181.63 77.9779 182.088C80.4429 182.561 82.8735 183.286 85.2679 184.2C86.1585 184.539 86.5952 185.514 86.2443 186.375C85.8934 187.238 84.8874 187.661 83.9977 187.321C83.9348 187.297 83.8747 187.27 83.8166 187.239L83.7613 187.211C81.7254 186.155 79.5761 185.224 77.3181 184.514C75.0581 183.82 72.7362 183.231 70.3638 182.833C67.9942 182.426 65.5893 182.137 63.1682 181.971C60.7471 181.812 58.3098 181.748 55.8706 181.854Z" fill="#232323"/>
<path d="M191.221 160.035C188.511 159.83 185.796 159.976 183.13 160.328C182.465 160.432 181.799 160.513 181.139 160.636L179.168 161.027L177.226 161.517C176.577 161.669 175.951 161.903 175.315 162.091L174.366 162.389L173.437 162.743C172.822 162.987 172.197 163.199 171.594 163.466C170.398 164.023 169.189 164.534 168.061 165.199C165.74 166.407 163.645 167.956 161.627 169.541L161.539 169.61C160.795 170.193 159.704 170.083 159.101 169.362C158.499 168.642 158.613 167.586 159.357 167.002C159.409 166.962 159.465 166.923 159.52 166.889L161.313 165.787C161.911 165.423 162.494 165.042 163.13 164.742L164.997 163.789C165.303 163.623 165.626 163.487 165.949 163.354L166.915 162.948C168.184 162.371 169.521 161.959 170.833 161.509C171.493 161.295 172.174 161.139 172.84 160.952L173.843 160.684L174.862 160.476C175.543 160.349 176.211 160.176 176.898 160.088L178.945 159.79L181.002 159.599C181.687 159.544 182.376 159.531 183.06 159.494C185.8 159.415 188.547 159.552 191.222 160.034L191.221 160.035Z" fill="#232323"/>
<path d="M175.772 192.936C173.521 191.698 171.126 190.681 168.694 189.831C166.259 188.982 163.761 188.331 161.242 187.864C159.987 187.604 158.713 187.47 157.451 187.307C156.817 187.247 156.18 187.217 155.547 187.171L154.597 187.109H153.645C153.012 187.11 152.38 187.098 151.75 187.111L149.864 187.241C149.552 187.266 149.237 187.276 148.926 187.312L147.995 187.449L146.142 187.719L146.01 187.738C145.064 187.876 144.182 187.244 144.041 186.328C143.899 185.412 144.551 184.559 145.497 184.421C145.55 184.414 145.607 184.408 145.66 184.406L147.709 184.298L148.731 184.246C149.071 184.238 149.412 184.257 149.752 184.262L151.789 184.311C152.465 184.359 153.139 184.434 153.811 184.494L154.819 184.591L155.817 184.749C156.481 184.86 157.148 184.954 157.806 185.079C159.115 185.372 160.426 185.636 161.702 186.026C164.265 186.753 166.759 187.661 169.154 188.757C171.548 189.855 173.856 191.1 176.022 192.574C176.124 192.643 176.148 192.779 176.077 192.877C176.01 192.969 175.882 192.996 175.783 192.942L175.771 192.935L175.772 192.936Z" fill="#232323"/>
<path d="M135.135 194.692C134.94 194.975 134.709 195.348 134.507 195.696C134.298 196.051 134.098 196.415 133.904 196.783C133.513 197.518 133.16 198.276 132.822 199.044C132.16 200.585 131.623 202.181 131.219 203.818C130.797 205.453 130.582 207.134 130.509 208.833L130.489 210.111C130.509 210.536 130.546 210.962 130.574 211.39L130.619 212.034L130.724 212.669L130.937 213.949L130.513 212.715L130.301 212.094L130.147 211.458C130.047 211.032 129.937 210.606 129.844 210.176L129.646 208.872C129.428 207.127 129.358 205.34 129.51 203.567C129.645 201.792 129.926 200.02 130.355 198.273C130.575 197.402 130.818 196.533 131.106 195.672C131.248 195.241 131.398 194.812 131.563 194.383C131.731 193.946 131.891 193.544 132.114 193.064V193.063C132.51 192.218 133.537 191.843 134.41 192.225C135.282 192.607 135.669 193.602 135.275 194.447C135.235 194.53 135.185 194.617 135.134 194.691L135.135 194.692Z" fill="#232323"/>
<path d="M101.055 196.416C101.011 196.419 100.909 196.443 100.825 196.46C100.74 196.475 100.644 196.501 100.552 196.523C100.368 196.566 100.18 196.618 99.9902 196.675C99.6126 196.776 99.234 196.912 98.8555 197.039C98.1031 197.316 97.3479 197.617 96.6165 197.973C95.149 198.678 93.7186 199.505 92.3865 200.482C92.0404 200.712 91.7324 200.984 91.4015 201.235C91.0744 201.49 90.7445 201.745 90.4432 202.029L89.5115 202.86C89.2131 203.149 88.927 203.451 88.6324 203.747C88.0259 204.328 87.5148 204.985 86.9589 205.618C86.422 206.263 85.9491 206.955 85.436 207.628C85.8232 206.887 86.176 206.118 86.5984 205.386C87.0409 204.667 87.4452 203.913 87.9544 203.227C88.2004 202.878 88.4388 202.522 88.6934 202.176L89.4991 201.168C89.7614 200.824 90.0541 200.506 90.3469 200.186C90.6434 199.87 90.92 199.53 91.2375 199.232C92.4552 197.98 93.8169 196.85 95.2777 195.823C96.0062 195.306 96.7758 194.838 97.5663 194.389C97.9696 194.175 98.3672 193.954 98.7916 193.76C98.9995 193.659 99.2121 193.56 99.4333 193.468C99.5439 193.421 99.6488 193.373 99.769 193.327C99.8891 193.281 99.9893 193.239 100.152 193.185L100.386 193.109C101.304 192.81 102.3 193.29 102.608 194.179C102.917 195.068 102.423 196.032 101.504 196.33C101.358 196.378 101.201 196.406 101.055 196.415V196.416Z" fill="#232323"/>
<path d="M146.104 15.7649C146.104 15.7649 134.181 0.876826 107.217 14.7353C80.2523 28.5929 82.3377 45.469 82.3377 51.9042C82.3377 58.3395 84.5147 74.7004 84.5147 80.6499C84.5147 86.5994 89.6601 97.1955 89.6601 97.1955C89.6601 97.1955 90.812 105.62 85.4368 109.216C85.4368 109.216 97.9389 127.808 144.752 119.872C177.398 114.337 183.542 101.844 183.542 101.844C183.542 101.844 177.319 91.6597 179.087 81.9713C180.854 72.2838 184.694 63.7312 180.278 46.627C175.862 29.5227 165.879 9.81539 146.104 15.7649Z" fill="#262E3A"/>
<path d="M181.903 71.0668C182.39 76.1612 180.87 79.5261 178.639 81.7497C174.227 86.1488 167.031 86.0851 167.031 86.0851C162.473 95.8344 154.306 101.816 140.913 105.922H140.909C140.587 106.022 140.265 106.118 139.934 106.212C136.67 107.16 133.103 107.937 129.209 108.536C125.369 109.127 121.707 109.313 118.255 109.168C115.54 109.053 112.952 108.733 110.51 108.239C100.681 106.253 93.1656 101.456 88.9957 95.9978V95.9941C88.4541 95.2877 87.9744 94.5703 87.5482 93.8491C86.0272 91.2645 85.087 88.2422 84.5149 83.6879C83.9428 79.1217 83.7397 74.1353 83.6967 69.8636C83.6891 69.0196 83.6891 68.2052 83.6929 67.4323C83.7044 65.0896 83.7578 63.1043 83.8083 61.7247C83.8045 61.7247 83.7969 61.7247 83.7931 61.7284C83.8007 61.5982 83.8045 61.4717 83.8083 61.3526C130.077 52.9865 144.185 29.1516 144.185 29.1516C144.185 29.1516 147.18 56.9572 155.896 62.8023C167.127 70.3318 171.064 61.6868 171.064 61.6868C171.064 61.6868 178.413 61.371 181.048 67.5542C181.474 68.5468 181.773 69.7112 181.904 71.0677L181.903 71.0668Z" fill="#F9C4B2"/>
<path d="M166.651 140.049C166.685 140.313 168.083 151.598 159.271 158.414C155.988 160.96 151.288 162.883 144.569 163.382L144.27 163.407L143.064 149.56C148.532 148.084 149.561 146.091 149.561 146.091V142.339C156.918 143.38 163.192 141.484 166.652 140.049H166.651Z" fill="#F9C4B2"/>
<path d="M153.784 174.164C155.19 177.804 153.841 181.69 153.788 181.85L153.784 181.853C151.53 183.382 148.904 184.407 146.35 185.081C143.006 185.969 139.784 186.248 137.657 186.248C137.657 186.248 133.225 189.159 125.992 191.636C119.429 193.885 110.559 195.775 100.603 194.8C100.603 194.8 90.7739 195.681 83.689 184.341C88.5655 186.654 94.3059 188.085 99.5352 189.037C106.17 187.201 110.628 185.46 115.002 179.927C115.693 179.05 116.469 178.195 117.29 177.373C122.036 172.61 128.249 168.958 128.249 168.958H144.752L144.445 165.426C144.656 165.504 151.434 168.066 153.783 174.164H153.784Z" fill="#F9C4B2"/>
<path d="M146.35 185.082C146.35 185.082 146.25 185.446 145.901 186.063C145.152 187.387 143.24 189.867 138.647 192.403C131.912 196.122 125.992 191.637 125.992 191.637C133.225 189.16 137.657 186.249 137.657 186.249C139.784 186.249 143.005 185.97 146.35 185.082Z" fill="#F9C4B2"/>
<path d="M139.934 106.213V106.216C139.934 106.216 137.849 114.114 129.209 115.787C120.57 117.461 118.255 109.168 118.255 109.168C121.707 109.313 125.37 109.128 129.209 108.536C133.103 107.938 136.67 107.16 139.934 106.212V106.213Z" fill="#F9C4B2"/>
<path d="M110.51 168.959C110.51 168.959 112.783 172.867 113.893 176.395C110.498 175.287 105.061 173.041 100.166 168.959H110.51Z" fill="#F9C4B2"/>
<path d="M117.237 177.325C117.237 177.325 115.936 177.065 113.893 176.395C110.499 175.287 105.061 173.041 100.166 168.959C99.5327 168.435 98.91 167.877 98.2997 167.286C91.1003 160.314 74.6391 161.448 72.443 168.959C72.1474 169.963 72.1093 171.078 72.382 172.305C73.6149 177.875 78.0804 181.686 83.6902 184.342C88.5667 186.655 94.3072 188.086 99.5365 189.038C106.171 187.202 110.629 185.461 115.003 179.928C115.695 179.051 116.47 178.196 117.292 177.374L117.238 177.326L117.237 177.325Z" fill="#F9C4B2"/>
<path d="M83.6926 67.4304C83.6888 68.2042 83.6888 69.0177 83.6965 69.8617C83.727 74.2119 83.9272 79.358 84.5146 84.0582C78.6893 83.5974 74.1094 78.756 74.1094 72.8508C74.1094 66.9456 78.3174 62.5105 83.7928 61.7256C83.747 63.1569 83.6965 65.1357 83.6926 67.4295V67.4304Z" fill="#F9C4B2"/>
<path d="M159.271 158.414C159.271 158.414 162.616 168.587 158.584 176.582C157.47 178.787 155.773 180.512 153.788 181.851C153.842 181.691 155.19 177.805 153.785 174.165C151.435 168.067 144.657 165.505 144.446 165.427L144.27 163.407L144.569 163.382C151.289 162.883 155.989 160.961 159.271 158.414Z" fill="#EFC03C"/>
<path d="M143.117 63.9612C147.36 63.9612 150.796 68.4563 150.796 74.0004C150.796 79.5446 147.359 84.0397 143.117 84.0397C138.875 84.0397 135.438 79.5482 135.438 74.0004C135.438 68.4526 138.875 63.9612 143.117 63.9612Z" fill="#232323"/>
<path d="M140.909 68.9476C142.131 68.9476 143.117 70.3788 143.117 72.149C143.117 73.9192 142.13 75.3468 140.909 75.3468C139.689 75.3468 138.702 73.9155 138.702 72.149C138.702 70.3825 139.692 68.9476 140.909 68.9476Z" fill="white"/>
<path d="M110.51 168.959H128.25C128.25 168.959 122.038 172.61 117.292 177.374L117.239 177.326C117.239 177.326 115.937 177.065 113.894 176.396C112.784 172.868 110.511 168.96 110.511 168.96L110.51 168.959Z" fill="#EFC03C"/>
<path d="M164.151 119.505C163.445 118.052 162.569 116.75 161.582 115.586C154.421 107.156 141.228 105.952 140.913 105.922H140.909C140.587 106.022 140.265 106.118 139.934 106.212V106.215C139.934 106.215 137.848 114.113 129.209 115.786C120.57 117.46 118.255 109.167 118.255 109.167C115.54 109.052 112.952 108.733 110.51 108.238C110.51 108.238 104.228 111.085 101.202 118.712C101.376 118.765 101.555 118.817 101.732 118.87C100.424 120.872 98.8373 124.001 97.3297 128.8C93.8835 139.769 95.1241 151.712 95.1241 151.712C95.1241 151.712 128.503 156.004 143.063 149.56C148.531 148.083 149.56 146.091 149.56 146.091V142.339C156.917 143.38 163.191 141.484 166.651 140.049V140.045C168.482 139.287 169.527 138.655 169.527 138.655C169.527 138.655 168.951 129.359 164.151 119.505Z" fill="#8B56FB"/>
<path d="M88.4532 68.1257C88.6229 68.6641 88.9853 69.1017 89.3925 69.424C89.8054 69.7481 90.2907 69.9504 90.7866 70.0759C91.2767 70.2135 91.8059 70.244 92.317 70.2597C92.584 70.2477 92.8415 70.2449 93.1018 70.2265L93.8866 70.1369L93.9352 70.1313C94.6885 70.0445 95.3713 70.5663 95.4609 71.2958C95.5505 72.0252 95.0118 72.6864 94.2585 72.7732C94.0802 72.7935 93.9009 72.7787 93.7378 72.7363L92.8014 72.4907C92.4915 72.3955 92.1826 72.2801 91.8822 72.1758C91.2786 71.9209 90.6884 71.6439 90.162 71.2477C89.6356 70.8673 89.1665 70.3991 88.8537 69.8525C88.5438 69.3086 88.3702 68.7047 88.4208 68.1285C88.4208 68.1192 88.4294 68.1128 88.4389 68.1137C88.4456 68.1137 88.4523 68.1211 88.4542 68.1276L88.4532 68.1257Z" fill="#232323"/>
<path d="M151.922 63.6435C152.116 64.1911 152.1 64.8172 151.936 65.4174C151.77 66.0213 151.433 66.5864 151.019 67.0795C150.608 67.5883 150.106 67.9955 149.585 68.3861C149.319 68.5588 149.049 68.7435 148.772 68.9088L147.926 69.3686C147.265 69.7278 146.427 69.4997 146.057 68.8589C145.686 68.2181 145.921 67.4073 146.583 67.0481C146.739 66.9631 146.906 66.9105 147.074 66.8893L147.127 66.8828L147.911 66.7849C148.169 66.7415 148.419 66.6834 148.68 66.6316C149.172 66.4959 149.677 66.3408 150.118 66.0915C150.567 65.8523 150.986 65.542 151.306 65.1302C151.62 64.7211 151.861 64.2114 151.889 63.6491C151.889 63.6398 151.895 63.6315 151.905 63.6315C151.911 63.6315 151.919 63.637 151.922 63.6426V63.6435Z" fill="#232323"/>
<path d="M99.5364 63.9612C103.78 63.9612 107.215 68.4563 107.215 74.0004C107.215 79.5446 103.779 84.0397 99.5364 84.0397C95.2941 84.0397 91.8574 79.5482 91.8574 74.0004C91.8574 68.4526 95.2979 63.9612 99.5364 63.9612Z" fill="#232323"/>
<path d="M97.3315 68.9476C98.5483 68.9476 99.5352 70.3788 99.5352 72.149C99.5352 73.9192 98.5483 75.3468 97.3315 75.3468C96.1148 75.3468 95.124 73.9155 95.124 72.149C95.124 70.3825 96.111 68.9476 97.3315 68.9476Z" fill="white"/>
<path d="M144.752 168.959H66.0484L61.8223 120.435H140.526L144.752 168.959Z" fill="#CCCCCC"/>
<path d="M155.655 146.569C154.621 146.444 153.587 146.451 152.587 146.554C152.088 146.604 151.597 146.683 151.122 146.792C150.645 146.89 150.187 147.039 149.746 147.191H149.743C149.133 147.404 148.463 147.096 148.245 146.506C148.026 145.916 148.344 145.267 148.953 145.056C149.091 145.008 149.235 144.987 149.373 144.989C149.95 145.001 150.515 145.029 151.067 145.111C151.619 145.184 152.159 145.291 152.685 145.428C153.734 145.697 154.738 146.063 155.664 146.541C155.671 146.545 155.674 146.553 155.67 146.561C155.667 146.566 155.661 146.569 155.655 146.568V146.569Z" fill="#232323"/>
<path d="M140.409 181.167C140.35 182.157 140.194 183.153 139.937 184.155C139.667 185.155 139.3 186.17 138.606 187.169L138.545 187.258C138.116 187.877 137.25 188.041 136.612 187.626C135.973 187.21 135.803 186.372 136.232 185.753C136.357 185.573 136.524 185.429 136.706 185.329C137.412 184.945 138.112 184.302 138.732 183.577C139.351 182.846 139.92 182.035 140.408 181.167H140.409Z" fill="#232323"/>
<g opacity="0.5">
<path d="M33.9605 78.8271C31.364 80.0035 30.5048 83.3296 31.1866 86.026C31.8684 88.7223 33.6849 90.9883 35.244 93.3181C36.8031 95.6478 38.1838 98.3267 37.8167 101.08C37.4715 103.669 35.6454 105.827 33.7564 107.69C31.8674 109.552 29.7877 111.349 28.6864 113.733C27.586 116.116 27.7958 119.321 29.9718 120.863C27.2742 121.746 24.5861 118.82 24.6194 116.063C24.6538 113.305 26.4055 110.889 27.9779 108.59C29.5513 106.292 31.0712 103.642 30.5697 100.928C30.151 98.66 28.4089 96.8686 27.3276 94.8177C25.8 91.9201 25.6359 88.3806 26.887 85.362C28.1381 82.3434 30.7861 79.8973 33.9586 78.8271H33.9605Z" fill="white"/>
</g>
<g opacity="0.5">
<path d="M20.5871 99.6129C22.3388 99.3331 24.0123 100.763 24.4957 102.417C24.9792 104.072 25.064 106.133 23.9341 107.46C22.1109 109.602 22.5323 110.649 22.2758 112.349C20.588 112.413 19.4361 110.537 19.5248 108.903C19.6135 107.27 20.5022 105.794 21.0562 104.249C21.6102 102.704 21.7561 100.794 20.5871 99.6129Z" fill="white"/>
</g>
<path d="M103.17 139.808L103.479 140.415C103.713 140.873 104.165 141.191 104.687 141.264L105.379 141.361C106.695 141.546 107.22 143.112 106.268 144.01L105.767 144.483C105.389 144.84 105.217 145.354 105.305 145.858L105.424 146.525C105.649 147.794 104.273 148.761 103.096 148.162L102.477 147.847C102.01 147.609 101.452 147.609 100.985 147.847L100.366 148.162C99.1892 148.761 97.8142 147.794 98.0383 146.525L98.1565 145.858C98.2462 145.354 98.0736 144.841 97.695 144.483L97.1944 144.01C96.2427 143.112 96.7681 141.546 98.0831 141.361L98.7744 141.264C99.297 141.19 99.748 140.873 99.9816 140.415L100.291 139.808C100.879 138.654 102.579 138.654 103.167 139.808H103.17Z" fill="white"/>
<g opacity="0.3">
<path d="M144.753 19.8537C144.753 19.8537 156.075 18.6099 161.582 23.9435C171.602 33.6467 178.17 53.4075 176.984 63.6463L181.046 67.5532C181.046 67.5532 184.49 49.5422 176.958 36.367C169.427 23.1919 167.729 15.534 155.661 14.884C147.065 14.4213 146.297 15.5784 146.297 15.5784C146.297 15.5784 140.153 4.99152 120.186 10.2845C100.22 15.5774 89.929 23.3433 84.5156 36.4714C84.5156 36.4714 99.537 17.4363 125.371 14.2754C143.736 12.0288 144.754 19.8528 144.754 19.8528L144.753 19.8537Z" fill="#2A2433"/>
</g>
<g opacity="0.3">
<path d="M172.562 85.2835C172.562 85.2835 171.499 103.146 157.18 111.662C157.18 111.662 147.799 104.378 139.934 106.216C139.934 106.216 158.007 101.748 167.031 86.086L172.562 85.2835H172.562Z" fill="#2A2433"/>
</g>
<g opacity="0.3">
<path d="M89.6602 97.1955C89.6602 97.1955 92.4941 111.504 101.732 118.2C101.732 118.2 103.329 111.66 110.51 108.238C110.51 108.238 95.228 103.888 89.6602 97.1955Z" fill="#2A2433"/>
</g>
<g opacity="0.3">
<path d="M126.922 108.841C126.922 108.841 131.726 110.17 137.956 110.17L138.811 108.748C138.811 108.748 148.561 109.279 158.004 117.146C162.789 121.131 166.218 140.225 166.218 140.225L170.2 138.004C170.2 138.004 168.281 119.376 159.869 113.801C151.458 108.227 139.935 106.216 139.935 106.216L126.923 108.841L126.922 108.841Z" fill="#232323"/>
</g>
<g opacity="0.3">
<path d="M163.061 141.617C163.061 141.617 162.231 158.609 144.269 159.759L144.88 163.356C149.481 163.375 160.643 159.196 163.743 153.402C168.95 143.673 166.216 140.224 166.216 140.224L163.06 141.616L163.061 141.617Z" fill="#232323"/>
</g>
<g opacity="0.3">
<path d="M161.582 65.8864C161.582 65.8864 171.047 88.6844 144.753 104.56C144.753 104.56 161.08 98.9591 167.031 86.0859C167.031 86.0859 182.193 85.1043 181.812 75.3467C181.431 65.59 179.51 62.4301 171.063 61.6859C171.063 61.6859 168.805 66.9271 161.582 65.8864Z" fill="#232323"/>
</g>
<g opacity="0.3">
<path d="M125.992 191.637L137.657 186.249C137.657 186.249 142.593 187.811 146.68 185.705C146.68 185.705 139.193 193.879 133.625 193.879C128.057 193.879 125.992 191.637 125.992 191.637Z" fill="#232323"/>
</g>
<g opacity="0.3">
<path d="M100.166 168.959C100.166 168.959 112.368 177.277 117.237 177.325C117.237 177.325 123.45 170.818 128.25 168.959C133.049 167.1 126.922 168.959 126.922 168.959H100.166H100.166Z" fill="#232323"/>
</g>
<g opacity="0.3">
<path d="M72.3819 172.305C72.3819 172.305 95.9968 172.555 106.364 173.639L99.3018 168.216H71.6753L72.3819 172.305Z" fill="#232323"/>
</g>
<g opacity="0.3">
<path d="M159.331 158.608C159.331 158.608 153.394 162.882 148.559 162.882C148.559 162.882 148.558 164.566 148.001 167.252L144.441 165.423L144.568 168.959L124.985 168.587L118.736 176.209L124.217 171.748C124.217 171.748 145.608 166.022 139.032 185.082C139.009 185.147 137.706 186.199 137.656 186.249C137.656 186.249 158.183 187.88 160.572 168.959C161.582 160.964 159.331 158.608 159.331 158.608Z" fill="#232323"/>
</g>
<g opacity="0.3">
<path d="M75.9912 178.998C75.9912 178.998 94.6743 186.988 100.604 185.082C106.532 183.174 113.975 181.154 113.975 181.154C113.975 181.154 107.109 189.037 99.5365 189.037C91.9643 189.037 75.9922 178.998 75.9922 178.998H75.9912Z" fill="#232323"/>
</g>
<g opacity="0.3">
<path d="M99.5362 189.037C99.5362 189.037 100.991 194.628 113.084 194.628C113.084 194.628 101.372 196.931 93.0195 193.077C84.6683 189.224 83.689 184.342 83.689 184.342L99.5352 189.038L99.5362 189.037Z" fill="#232323"/>
</g>
<g opacity="0.3">
<path d="M83.808 61.3507L84.5146 84.0582C84.5146 84.0582 74.1094 83.1542 74.1094 73.9995C74.1094 64.8449 81.6806 61.7505 83.809 61.3498L83.808 61.3507Z" fill="#232323"/>
</g>
<g opacity="0.3">
<path d="M118.736 110.406C118.736 110.406 110.074 110.122 101.731 118.2C101.731 118.2 102.906 110.544 108.858 108.238C108.858 108.238 117.94 110.405 118.736 110.405V110.406Z" fill="#232323"/>
</g>
<g opacity="0.3">
<path d="M147.526 141.146C147.526 141.146 147.562 145.161 142.802 146.555L143.064 149.56L149.561 146.555V142.339L147.526 141.146Z" fill="#232323"/>
</g>
<g opacity="0.3">
<path d="M137.657 120.908C137.657 120.908 138.133 150.452 108.701 168.132L144.568 168.959L140.525 120.435L137.657 120.908Z" fill="#232323"/>
</g>
<g opacity="0.3">
<path d="M124.675 46.6298C124.675 46.6298 134.104 43.8928 139.846 40.0145C140.999 39.2361 142.596 39.7485 143.062 41.033C144.043 43.7367 145.844 47.7646 148.561 50.3954C148.561 50.3954 142.034 35.6588 144.217 29.435C144.217 29.435 132.051 42.576 124.675 46.6298Z" fill="#232323"/>
</g>
<g opacity="0.4">
<path d="M67.2185 127.113C68.3961 127.113 69.3506 126.189 69.3506 125.048C69.3506 124.503 69.1304 124.008 68.7747 123.639C82.0158 123.13 136.631 121.029 137.658 120.907L61.8232 120.434L66.0494 168.958H70.1936L66.1991 126.862C66.5023 127.021 66.8494 127.113 67.2185 127.113Z" fill="white"/>
</g>
<g opacity="0.4">
<path d="M88.4368 61.3507C88.4368 61.3507 85.7049 83.4506 91.1249 91.6449C99.0881 103.683 116.051 110.124 150.797 101.809C150.797 101.809 119.95 116.628 99.2378 104.308C99.2378 104.308 85.6476 100.841 84.4862 83.1228C83.3248 65.4044 83.8092 61.3516 83.8092 61.3516H88.4378L88.4368 61.3507Z" fill="white"/>
</g>
<g opacity="0.4">
<path d="M146.313 22.4568C146.313 22.4568 151.289 69.7805 171.063 61.6859C171.063 61.6859 163.007 70.9809 153.788 59.6405C144.569 48.2993 144.443 29.1506 144.443 29.1506C144.443 29.1506 128.955 49.4046 102.526 56.6709L83.8096 61.3516C83.8096 61.3516 119.707 50.5302 146.313 22.4568Z" fill="#35404F"/>
</g>
<g opacity="0.4">
<path d="M147.526 130.214C147.526 130.214 148.561 137.539 152.611 139.399C157.081 141.451 164.129 141.147 164.129 141.147L148.12 141.723L147.525 130.215L147.526 130.214Z" fill="white"/>
</g>
<g opacity="0.4">
<path d="M128.25 178.415C129.959 178.415 131.344 177.261 131.344 175.839C131.344 174.417 129.959 173.264 128.25 173.264C126.541 173.264 125.155 174.417 125.155 175.839C125.155 177.261 126.541 178.415 128.25 178.415Z" fill="white"/>
</g>
<g opacity="0.4">
<path d="M77.3968 177.008C78.173 177.008 78.8023 176.485 78.8023 175.839C78.8023 175.194 78.173 174.67 77.3968 174.67C76.6205 174.67 75.9912 175.194 75.9912 175.839C75.9912 176.485 76.6205 177.008 77.3968 177.008Z" fill="white"/>
</g>
<path d="M181.047 68.8552C180.914 68.8552 180.779 68.8358 180.645 68.7961C179.938 68.5828 179.543 67.8542 179.762 67.17C179.796 67.0647 183.007 56.4373 176.134 37.959C172.177 27.3204 166.7 20.4281 159.858 17.4723C152.884 14.4592 146.866 16.7603 146.806 16.7834C146.156 17.0392 145.406 16.7686 145.094 16.1592C145.029 16.0382 143.335 12.9605 138.14 11.2688C133.21 9.66303 124.121 9.0896 108.814 15.4731C94.7542 21.3377 86.485 30.7389 84.2365 43.4163C82.9158 50.8627 84.164 57.333 84.7857 59.8455C107.621 55.524 122.164 47.3445 130.385 41.19C139.439 34.4103 142.985 28.5605 143.02 28.5014C143.31 28.013 143.893 27.7618 144.464 27.8781C145.034 27.9954 145.461 28.4543 145.522 29.0149C146.338 36.584 149.931 57.2175 156.661 61.7311C160.27 64.1514 163.378 65.036 165.895 64.3647C168.646 63.6306 169.824 61.1789 169.837 61.154C170.143 60.5021 170.936 60.2094 171.611 60.5012C172.286 60.7939 172.591 61.5557 172.293 62.2104C172.227 62.3554 170.63 65.7747 166.659 66.8597C163.327 67.7702 159.448 66.7646 155.132 63.8707C147.809 58.96 144.407 40.3838 143.287 32.654C141.295 35.1232 137.752 38.9442 132.173 43.1411C123.561 49.6197 108.222 58.261 84.0562 62.6305C83.3878 62.7506 82.7327 62.3701 82.5277 61.7441C82.4152 61.4006 79.8005 53.2164 81.5694 43.0829C83.2076 33.6956 89.0796 20.8695 107.752 13.0824C134.849 1.78176 144.483 10.8441 146.867 14.0243C149.126 13.3936 154.627 12.3843 160.892 15.0687C168.457 18.3098 174.436 25.7137 178.664 37.0771C185.875 56.4677 182.478 67.483 182.33 67.9429C182.151 68.4997 181.62 68.8571 181.048 68.8571L181.047 68.8552Z" fill="#232323"/>
<path d="M120.487 110.517C119.719 110.517 118.955 110.501 118.196 110.468C115.475 110.353 112.796 110.032 110.234 109.513C100.777 107.602 92.641 102.958 87.9151 96.7725C87.8989 96.7522 87.8846 96.731 87.8693 96.7088C87.3334 96.0043 86.8328 95.26 86.3808 94.4954C84.7197 91.6726 83.7633 88.4887 83.1797 83.8449C82.6829 79.8807 82.4045 75.1805 82.3521 69.8756C82.3559 67.4812 82.4035 63.0904 82.4484 61.6868C82.456 61.5492 82.4589 61.4476 82.4627 61.3507H83.8072L85.1507 61.3941C85.146 61.5511 85.1412 61.6748 85.1336 61.8022C85.0907 63.1513 85.044 67.5024 85.0401 69.8654C85.0916 75.0596 85.3634 79.6628 85.8478 83.5318C86.3847 87.8109 87.2429 90.7039 88.7151 93.2054C89.1261 93.9017 89.5838 94.5795 90.074 95.2194C90.0892 95.2397 90.1045 95.2609 90.1198 95.2822C94.4651 100.933 101.992 105.189 110.783 106.965C113.204 107.455 115.737 107.759 118.313 107.869C121.792 108.015 125.387 107.807 128.997 107.252C132.78 106.671 136.329 105.901 139.547 104.967C139.876 104.874 140.186 104.781 140.497 104.684C140.516 104.678 140.535 104.673 140.555 104.668C153.729 100.621 161.517 94.7235 165.806 85.5504C166.025 85.0813 166.525 84.7821 167.042 84.7858C167.108 84.7904 173.731 84.7766 177.674 80.8447C179.984 78.5417 180.956 75.2932 180.563 71.1887C180.45 70.0206 180.195 68.966 179.804 68.0546C177.57 62.8106 171.381 62.9768 171.117 62.9879C170.385 63.0156 169.751 62.4579 169.721 61.7413C169.69 61.0247 170.263 60.419 171.003 60.3876C171.34 60.3737 179.328 60.1106 182.288 67.0592C182.782 68.2088 183.102 69.5182 183.24 70.9486C183.709 75.8454 182.484 79.7856 179.602 82.6592C175.743 86.5061 170.075 87.2264 167.901 87.3594C163.201 96.8557 154.963 102.982 141.317 107.165C141.301 107.169 141.285 107.174 141.269 107.178C140.95 107.277 140.633 107.372 140.307 107.464C136.986 108.429 133.319 109.224 129.418 109.823C126.416 110.285 123.42 110.517 120.484 110.517L120.487 110.517Z" fill="#232323"/>
<path d="M118.116 92.9469C111.065 92.9469 107.879 88.4508 107.741 88.2513C107.33 87.6539 107.495 86.8459 108.112 86.4461C108.727 86.0481 109.559 86.206 109.973 86.7998C110.095 86.9715 112.813 90.6734 118.953 90.3198C126.134 89.9006 129.337 85.8172 129.469 85.6436C129.91 85.0684 130.75 84.9428 131.346 85.3666C131.942 85.7895 132.075 86.5975 131.642 87.1774C131.481 87.3917 127.618 92.4215 119.116 92.9182C118.774 92.9386 118.441 92.9478 118.117 92.9478L118.116 92.9469Z" fill="#232323"/>
<path d="M133.804 52.8923C134.19 52.6772 134.492 52.5386 134.834 52.3872C135.166 52.2404 135.501 52.1083 135.839 51.9865C136.512 51.7371 137.202 51.5414 137.895 51.3687C139.287 51.04 140.725 50.8858 142.156 50.9245C142.872 50.919 143.584 51.0363 144.289 51.1203C144.985 51.2874 145.689 51.3982 146.35 51.6586C147.709 52.0714 148.925 52.788 150.078 53.5313C150.368 53.7188 150.447 54.0992 150.253 54.3808C150.072 54.644 149.717 54.7271 149.435 54.584L149.382 54.5572C148.255 53.9819 147.111 53.4454 145.882 53.2026C145.285 53.0271 144.656 52.9967 144.047 52.9052C143.425 52.896 142.811 52.8489 142.194 52.9154C140.964 53.0004 139.749 53.2497 138.584 53.6467C138.005 53.8527 137.433 54.0761 136.886 54.3421C136.61 54.4732 136.341 54.6108 136.081 54.7576C135.828 54.897 135.547 55.0697 135.368 55.1953L135.354 55.2054C134.716 55.6533 133.824 55.5157 133.363 54.898C132.9 54.2811 133.042 53.4168 133.68 52.9699C133.72 52.9413 133.764 52.9145 133.806 52.8914L133.804 52.8923Z" fill="#232323"/>
<path d="M101.203 120.015C101.069 120.015 100.932 119.995 100.797 119.954C88.4722 116.179 84.4625 110.162 84.2975 109.908C84.103 109.608 84.0439 109.243 84.1325 108.899C84.2212 108.554 84.452 108.261 84.7705 108.085C84.9507 107.98 89.4696 105.235 87.675 96.2443C87.6588 96.163 87.6502 96.0809 87.6502 95.9977C87.6502 95.2793 88.2519 94.6948 88.9938 94.6948C89.666 94.6948 90.2239 95.1713 90.3221 95.7955C91.8974 103.754 89.0577 107.772 87.3107 109.418C88.8689 111.112 93.0722 114.859 101.606 117.472C102.313 117.689 102.705 118.421 102.482 119.106C102.301 119.661 101.771 120.016 101.201 120.016L101.203 120.015Z" fill="#232323"/>
<path d="M161.583 116.888C161.036 116.888 160.522 116.563 160.322 116.038C160.065 115.363 160.421 114.615 161.117 114.366C173.933 109.782 180.119 103.855 181.898 101.911C176.155 92.3587 177.69 82.2105 177.76 81.7718C177.873 81.0617 178.56 80.5742 179.293 80.685C180.026 80.7949 180.529 81.4588 180.416 82.168C180.4 82.2695 178.891 92.4039 184.681 101.339C184.972 101.789 184.952 102.365 184.63 102.795C184.382 103.127 178.367 110.972 162.049 116.809C161.895 116.864 161.738 116.89 161.584 116.89L161.583 116.888Z" fill="#232323"/>
<path d="M153.797 143.936C152.374 143.936 150.892 143.843 149.366 143.627C149.034 143.581 148.701 143.526 148.363 143.468C147.804 143.371 147.368 142.945 147.274 142.401L145.355 131.245C145.233 130.536 145.728 129.866 146.459 129.747C147.191 129.63 147.884 130.108 148.006 130.818L149.767 141.053C156.944 142.064 163.092 140.108 166.122 138.852C166.803 138.569 167.593 138.875 167.886 139.535C168.178 140.197 167.862 140.961 167.18 141.245C164.53 142.344 159.675 143.936 153.797 143.936Z" fill="#232323"/>
<path d="M166.652 141.347C166.13 141.347 165.633 141.052 165.416 140.558C165.124 139.897 165.441 139.132 166.123 138.849C166.977 138.496 167.651 138.171 168.111 137.934C167.849 135.508 166.765 127.923 162.936 120.062C162.31 118.774 161.505 117.547 160.544 116.413C153.88 108.569 141.443 107.282 140.797 107.22C140.109 107.163 139.567 106.604 139.567 105.923C139.567 105.205 140.167 104.622 140.909 104.622H140.912C140.956 104.622 140.999 104.624 141.043 104.629C142.49 104.765 155.347 106.2 162.619 114.761C163.722 116.062 164.646 117.472 165.366 118.953C170.22 128.917 170.844 138.188 170.867 138.578C170.897 139.053 170.656 139.507 170.238 139.76C170.191 139.788 169.083 140.454 167.179 141.244C167.007 141.315 166.827 141.349 166.651 141.349L166.652 141.347Z" fill="#232323"/>
<path d="M144.567 164.684C143.872 164.684 143.282 164.165 143.228 163.481C143.172 162.765 143.725 162.139 144.466 162.084C150.281 161.653 154.979 160.076 158.431 157.398C166.629 151.056 165.332 140.319 165.317 140.212C165.31 140.158 165.307 140.103 165.307 140.049C165.307 139.33 165.908 138.746 166.65 138.746C167.35 138.746 167.926 139.263 167.988 139.925C168.098 140.82 169.298 152.323 160.109 159.431C156.229 162.441 151.034 164.207 144.671 164.68C144.636 164.683 144.601 164.684 144.567 164.684Z" fill="#232323"/>
<path d="M143.062 150.862C142.474 150.862 141.934 150.485 141.768 149.91C141.569 149.217 141.988 148.5 142.702 148.307C146.353 147.321 147.774 146.13 148.215 145.662V142.339C148.215 141.621 148.817 141.038 149.559 141.038C150.301 141.038 150.903 141.621 150.903 142.339V146.091C150.903 146.293 150.854 146.492 150.76 146.673C150.544 147.092 149.173 149.261 143.423 150.813C143.303 150.846 143.181 150.861 143.061 150.861L143.062 150.862Z" fill="#232323"/>
<path d="M100.604 121.736C100.479 121.736 100.352 121.719 100.226 121.683C99.5141 121.482 99.105 120.76 99.3129 120.069C99.5065 119.428 99.7201 118.813 99.949 118.242C103.131 110.222 109.663 107.184 109.939 107.059C110.612 106.755 111.412 107.035 111.726 107.686C112.041 108.336 111.752 109.109 111.083 109.415C111.025 109.442 105.236 112.173 102.457 119.179C102.255 119.685 102.065 120.229 101.893 120.799C101.723 121.367 101.186 121.736 100.604 121.736Z" fill="#232323"/>
<path d="M106.069 196.368C104.233 196.368 102.405 196.282 100.584 196.107C99.2388 196.186 89.5926 196.305 82.5401 185.015C82.1558 184.4 82.3589 183.6 82.994 183.227C83.6291 182.856 84.4548 183.052 84.8391 183.668C91.412 194.19 100.389 193.513 100.479 193.505C100.566 193.498 100.652 193.497 100.738 193.505C108.881 194.303 117.226 193.259 125.543 190.409C132.507 188.025 136.86 185.198 136.903 185.17C137.125 185.024 137.388 184.947 137.657 184.947C138.895 184.947 142.187 184.837 145.994 183.826C148.749 183.099 151.11 182.077 153.013 180.787C153.621 180.375 154.458 180.518 154.885 181.107C155.31 181.696 155.162 182.507 154.555 182.92C152.397 184.383 149.756 185.532 146.703 186.337C142.944 187.336 139.636 187.521 138.062 187.546C136.862 188.287 132.688 190.724 126.44 192.863C119.639 195.195 112.809 196.368 106.069 196.368V196.368Z" fill="#232323"/>
<path d="M153.789 183.152C153.364 183.152 152.946 182.957 152.685 182.594C152.26 182.004 152.41 181.193 153.019 180.782C154.978 179.462 156.444 177.856 157.376 176.01C161.116 168.593 158.022 158.905 157.99 158.808C157.766 158.123 158.158 157.391 158.865 157.174C159.572 156.957 160.327 157.335 160.552 158.019C160.695 158.455 164.011 168.786 159.792 177.153C158.656 179.403 156.894 181.342 154.557 182.919C154.323 183.077 154.055 183.153 153.79 183.153L153.789 183.152Z" fill="#232323"/>
<path d="M99.5373 190.34C99.4553 190.34 99.3714 190.332 99.2875 190.317C92.6755 189.114 87.3794 187.542 83.098 185.511C76.302 182.295 72.2541 177.944 71.0669 172.579C70.757 171.182 70.7847 169.844 71.1499 168.603C71.353 167.911 72.0968 167.513 72.811 167.708C73.5242 167.905 73.9381 168.626 73.735 169.316C73.4918 170.143 73.4785 171.056 73.6949 172.032C74.7 176.576 78.2615 180.324 84.2794 183.173C88.3416 185.099 93.4136 186.6 99.7843 187.759C100.514 187.892 100.994 188.571 100.857 189.279C100.736 189.904 100.171 190.34 99.5373 190.34Z" fill="#232323"/>
<path d="M117.239 178.627C117.149 178.627 117.058 178.618 116.966 178.6C116.91 178.589 115.56 178.316 113.463 177.629C109.746 176.415 104.268 174.098 99.2892 169.946C98.7266 169.477 98.6636 168.655 99.1481 168.111C99.6315 167.566 100.48 167.504 101.044 167.975C105.693 171.852 110.831 174.024 114.323 175.164C116.25 175.796 117.498 176.05 117.511 176.053C118.236 176.198 118.704 176.887 118.553 177.591C118.421 178.206 117.863 178.629 117.239 178.629V178.627Z" fill="#232323"/>
<path d="M99.5352 190.339C98.9506 190.339 98.4128 189.967 98.244 189.396C98.04 188.705 98.4529 187.985 99.1671 187.787C106.188 185.843 109.987 184.133 113.936 179.138C114.619 178.271 115.423 177.371 116.326 176.468C121.136 171.64 127.293 167.999 127.553 167.847C128.188 167.475 129.013 167.671 129.399 168.284C129.784 168.898 129.582 169.699 128.948 170.072C128.887 170.108 122.822 173.697 118.259 178.277C117.429 179.108 116.694 179.929 116.073 180.718C111.285 186.774 106.353 188.505 99.907 190.29C99.784 190.324 99.6591 190.34 99.5371 190.34L99.5352 190.339Z" fill="#232323"/>
<path d="M133.052 195.194C128.578 195.194 125.354 192.807 125.164 192.663C124.579 192.22 124.476 191.402 124.933 190.835C125.389 190.27 126.232 190.17 126.816 190.609C127.037 190.774 132.145 194.495 137.982 191.272C142.335 188.869 144.073 186.585 144.721 185.438C144.973 184.993 145.055 184.732 145.056 184.729C145.266 184.047 146.007 183.645 146.711 183.839C147.418 184.032 147.838 184.728 147.649 185.416C147.625 185.502 147.487 185.97 147.079 186.689C146.295 188.076 144.242 190.812 139.314 193.534C137.093 194.76 134.959 195.194 133.053 195.194H133.052Z" fill="#232323"/>
<path d="M113.892 177.697C113.317 177.697 112.783 177.336 112.607 176.775C111.554 173.428 109.36 169.636 109.339 169.598C108.975 168.972 109.204 168.178 109.851 167.826C110.498 167.474 111.318 167.695 111.681 168.321C111.777 168.486 114.039 172.394 115.179 176.017C115.395 176.704 114.995 177.431 114.284 177.641C114.154 177.68 114.022 177.698 113.892 177.698V177.697Z" fill="#232323"/>
<path d="M144.753 170.26H66.0501C65.3521 170.26 64.7695 169.742 64.7113 169.068L60.4842 120.543C60.4527 120.18 60.5796 119.821 60.8342 119.553C61.0888 119.285 61.4473 119.132 61.824 119.132H140.527C141.237 119.132 141.826 119.668 141.869 120.355L141.872 120.418L145.787 165.316L146.094 168.849C146.125 169.212 145.998 169.571 145.744 169.839C145.489 170.108 145.131 170.26 144.754 170.26H144.753ZM67.285 167.658H143.291L139.288 121.736H63.2839L67.285 167.658Z" fill="#232323"/>
<path d="M127 117.31C120.851 117.31 117.77 112.416 116.958 109.508C116.764 108.815 117.187 108.1 117.904 107.912C118.62 107.725 119.356 108.133 119.551 108.825C119.634 109.116 121.671 115.919 128.947 114.51C136.618 113.024 138.555 106.18 138.634 105.889C138.822 105.196 139.555 104.778 140.271 104.958C140.988 105.138 141.42 105.843 141.237 106.538C141.144 106.892 138.835 115.249 129.474 117.063C128.6 117.231 127.776 117.309 127.001 117.309L127 117.31Z" fill="#232323"/>
<path d="M153.785 183.153C153.467 183.153 153.149 183.044 152.893 182.825C152.461 182.453 152.334 181.874 152.532 181.381C152.727 180.777 153.665 177.571 152.525 174.62C150.386 169.069 144.031 166.666 143.966 166.642C143.79 166.576 143.628 166.476 143.495 166.347C142.97 165.839 142.969 165.012 143.493 164.504C143.903 164.107 144.511 164.02 145.007 164.242C145.877 164.58 152.599 167.369 155.042 173.71C156.522 177.542 155.322 181.496 155.066 182.249C155.009 182.419 154.914 182.582 154.792 182.715C154.526 183.004 154.156 183.153 153.784 183.153H153.785Z" fill="#232323"/>
<path d="M84.5149 85.3602C84.4787 85.3602 84.4424 85.3583 84.4052 85.3555C77.8781 84.8384 72.7651 79.346 72.7651 72.8517C72.7651 66.3574 77.3985 61.3497 83.5508 60.4457C83.9952 60.3635 84.4624 60.5048 84.7752 60.8188C85.0289 61.0727 85.1643 61.4153 85.1519 61.769C85.1061 63.0257 85.0498 65.0295 85.0374 67.4368C85.0336 68.2042 85.0336 69.0131 85.0413 69.8506V69.8534C85.0784 75.1879 85.3502 79.9148 85.8489 83.9021C85.8976 84.2899 85.7631 84.6787 85.4837 84.9603C85.2291 85.2161 84.8792 85.3592 84.5149 85.3592V85.3602ZM82.4123 63.3748C78.3511 64.662 75.4532 68.4877 75.4532 72.8526C75.4532 77.4401 78.6505 81.395 82.9835 82.492C82.5982 78.7947 82.3865 74.56 82.3532 69.8737C82.3455 69.0242 82.3455 68.2033 82.3493 67.4248C82.357 65.8818 82.3827 64.5022 82.4123 63.3748Z" fill="#232323"/>
<path d="M170.21 77.4919C170.261 76.3672 170.443 75.3551 170.744 74.3163C171.052 73.295 171.489 72.2783 172.198 71.4066C172.893 70.5386 173.915 69.8498 175.029 69.6605C176.136 69.4472 177.232 69.6272 178.231 69.931C178.321 69.9587 178.371 70.0511 178.343 70.1379C178.317 70.2182 178.233 70.2662 178.149 70.2514H178.146C177.151 70.076 176.118 70.052 175.216 70.3493C174.305 70.6282 173.6 71.2635 173.125 72.0327C172.644 72.8065 172.381 73.717 172.232 74.6404C172.087 75.5555 172.051 76.5481 172.129 77.4245L172.131 77.454C172.176 77.9665 171.783 78.418 171.254 78.4624C170.724 78.5058 170.258 78.1253 170.213 77.6128C170.209 77.5741 170.209 77.5297 170.21 77.4919Z" fill="#232323"/>
<path d="M179.033 73.9303C178.598 73.4926 178.052 73.1611 177.486 72.9654C176.917 72.7641 176.324 72.7031 175.753 72.7521C175.179 72.8158 174.63 72.9903 174.11 73.2286C173.851 73.3486 173.603 73.5093 173.354 73.6413L172.643 74.1437L172.584 74.1852C172.152 74.4918 171.545 74.4004 171.228 73.9821C170.912 73.5628 171.006 72.9755 171.439 72.669C171.499 72.6265 171.569 72.5896 171.634 72.5619L172.611 72.1629C172.958 72.0651 173.289 71.9487 173.64 71.8748C174.342 71.7289 175.068 71.6708 175.782 71.7557C177.217 71.945 178.472 72.7511 179.145 73.8555C179.164 73.8869 179.153 73.9276 179.121 73.947C179.093 73.9627 179.058 73.9571 179.037 73.9359L179.032 73.9313L179.033 73.9303Z" fill="#232323"/>
<path d="M155.069 72.3305L169.167 63.798" stroke="#282B38" stroke-width="2.22587"/>
<path d="M83.8413 61.2011L89.406 70.4756" stroke="#282B38" stroke-width="2.22587"/>
<path d="M154.698 74.1854C154.698 81.8207 148.832 87.9116 141.714 87.9116C134.596 87.9116 128.73 81.8207 128.73 74.1854C128.73 66.5501 134.596 60.4592 141.714 60.4592C148.832 60.4592 154.698 66.5501 154.698 74.1854Z" fill="url(#paint0_linear_66710_520)" fill-opacity="0.25" stroke="#282B38" stroke-width="2.22587"/>
<path d="M112.406 74.1854C112.406 81.9104 106.956 87.9116 100.535 87.9116C94.1136 87.9116 88.6637 81.9104 88.6637 74.1854C88.6637 66.4604 94.1136 60.4592 100.535 60.4592C106.956 60.4592 112.406 66.4604 112.406 74.1854Z" fill="url(#paint1_linear_66710_520)" fill-opacity="0.25" stroke="#282B38" stroke-width="2.22587"/>
<path d="M128.358 73.5204C122.794 70.8466 115.745 71.7397 112.777 73.5204" stroke="#282B38" stroke-width="2.22587"/>
</g>
<defs>
<linearGradient id="paint0_linear_66710_520" x1="141.714" y1="59.3463" x2="141.714" y2="89.0246" gradientUnits="userSpaceOnUse">
<stop stop-color="white"/>
<stop offset="1" stop-color="white" stop-opacity="0"/>
</linearGradient>
<linearGradient id="paint1_linear_66710_520" x1="100.535" y1="59.3463" x2="100.535" y2="89.0246" gradientUnits="userSpaceOnUse">
<stop stop-color="white"/>
<stop offset="1" stop-color="white" stop-opacity="0"/>
</linearGradient>
</defs>
</svg>
